<svg xmlns="http://www.w3.org/2000/svg" fill="none" viewBox="0 0 66 71">
    <path fill="#65EB87" d="M13 43.5h18.5L34 56l-7.5 3.5-16.5-14 3-2ZM33.4 27h18.5l.1 3-10.5 3-8.1-2v-4Z"/>
    <path fill="#fff" d="M30.4 2.777a3.423 3.423 0 0 1 4.785-.763l2.76 2.015 22.078 16.114 2.76 2.015a3.423 3.423 0 0 1 .733 4.79 3.423 3.423 0 0 1-4.786.763l-.697.954a17.243 17.243 0 0 1-11.208 6.861L36.678 37.15l1.556 10.166a17.243 17.243 0 0 1-3.119 12.765l-.696.955a3.424 3.424 0 0 1 .733 4.79 3.424 3.424 0 0 1-4.786.763l-2.769-2.02L5.52 48.452 2.76 46.44a3.423 3.423 0 0 1-.732-4.79 3.423 3.423 0 0 1 4.786-.763l.697-.954a17.243 17.243 0 0 1 11.207-6.861l10.148-1.624-1.547-10.16a17.243 17.243 0 0 1 3.118-12.765l.696-.955a3.423 3.423 0 0 1-.733-4.79Zm6.252 8.82-.697.954a10.34 10.34 0 0 0-1.877 7.66l1.562 10.157 10.156-1.617a10.34 10.34 0 0 0 6.724-4.123l.69-.946-16.558-12.086Zm-24.32 33.318L28.891 57l.696-.955a10.34 10.34 0 0 0 1.877-7.66l-1.562-10.157-10.156 1.617a10.34 10.34 0 0 0-6.723 4.123l-.697.954.006-.008Z"/>
    <path stroke="#FBB" stroke-linecap="round" stroke-width="4" d="M27 3.5C18 6 12.5 10 8.5 15m-4 7c-1 2-1 2-2 6"/>
    <path stroke="#BFC6FF" stroke-linecap="round" stroke-width="4" d="M38.5 64.5c9.5-2.5 15-3 21-14.5m3-6.5c.5-2 1-3.5 1-5"/>
</svg>